Coordinates
version=1
nRows=21
nColumns=22
inDegrees=yes

Units are S.I. units (second, meters, Newtons, ...)
If the header above contains a line with 'inDegrees', this indicates whether rotational values are in degrees (yes) or radians (no).

endheader
time	pelvis_tilt	pelvis_list	pelvis_rotation	pelvis_tx	pelvis_ty	pelvis_tz	hip_flexion_r	hip_adduction_r	hip_rotation_r	knee_angle_r	ankle_angle_r	subtalar_angle_r	hip_flexion_l	hip_adduction_l	hip_rotation_l	knee_angle_l	ankle_angle_l	subtalar_angle_l	lumbar_extension	lumbar_bending	lumbar_rotation
      4.34000000	      2.90018965	      2.17625600	    -13.99576610	      0.30807690	      0.90283207	     -0.51741532	     12.54607295	      9.21399718	    -12.61917850	    -24.27189231	      7.48672925	    -15.14638761	      8.51388411	     -8.03700570	     -4.71885695	    -67.72211897	    -14.35256678	     11.99335193	     -9.49606013	     -2.88277444	     -5.19486528
      4.35000000	      2.86377801	      2.22857735	    -15.44948320	      0.31478425	      0.90368790	     -0.51292490	     11.78395242	      9.50778265	    -11.36484664	    -23.92147182	      7.54081694	    -14.95990068	      9.83725741	     -8.21980058	     -4.54220742	    -67.99253493	    -12.98137891	     12.15884769	     -9.39210481	     -3.10346197	     -4.51805363
      4.36000000	      2.81762934	      2.28683051	    -16.95034766	      0.32124950	      0.90450241	     -0.50830610	     11.02689453	      9.78793100	    -10.02883719	    -23.55411552	      7.55017892	    -14.77589745	     11.10953073	     -8.43808640	     -4.41493666	    -68.01550830	    -11.60898208	     12.24280427	     -9.27770850	     -3.33372328	     -3.84552876
      4.37000000	      2.76550649	      2.34457663	    -18.48909257	      0.32751515	      0.90526977	     -0.50358985	     10.25657262	     10.05208090	     -8.65227373	    -23.15136924	      7.54050173	    -14.60865142	     12.31347971	     -8.69008072	     -4.32261352	    -67.78824023	    -10.20461975	     12.17835782	     -9.15524446	     -3.56309757	     -3.16574313
      4.38000000	      2.71617036	      2.39224622	    -20.05943975	      0.33356777	      0.90598817	     -0.49880971	      9.46469888	     10.30793999	     -7.19821218	    -22.71928461	      7.50442843	    -14.43967682	     13.44116873	     -8.97517049	     -4.25289340	    -67.32332999	     -8.80029399	     11.86185359	     -9.04484440	     -3.78031317	     -2.50125509
      4.39000000	      2.65750365	      2.42887104	    -21.64838515	      0.33950439	      0.90663870	     -0.49396320	      8.64368745	     10.54931827	     -5.74434336	    -22.22991285	      7.47393004	    -14.30621676	     14.48745963	     -9.29737897	     -4.20749553	    -66.61533362	     -7.35934848	     11.36585125	     -8.91678431	     -3.97894882	     -1.84822920
      4.40000000	      2.60957759	      2.44306618	    -23.24524507	      0.34526930	      0.90723512	     -0.48912340	      7.79714622	     10.77906971	     -4.25250060	    -21.73156990	      7.42884545	    -14.18141064	     15.44033464	     -9.63785861	     -4.15674132	    -65.68129451	     -5.91004963	     10.57861248	     -8.82121591	     -4.14642569	     -1.21462252
      4.41000000	      2.55501551	      2.44454841	    -24.83700127	      0.35097082	      0.90775406	     -0.48428565	      6.93168963	     10.98106836	     -2.80594566	    -21.20212351	      7.39613226	    -14.07412918	     16.30539337	    -10.00246939	     -4.13405444	    -64.51804521	     -4.43477166	      9.59798556	     -8.71436736	     -4.28479225	     -0.63072276
      4.42000000	      2.47491225	      2.42568069	    -26.44414517	      0.35653391	      0.90814971	     -0.47943695	      6.08317107	     11.18733129	     -1.30258999	    -20.68004205	      7.36201073	    -13.99015174	     17.10654990	    -10.40165599	     -4.13857309	    -63.15132506	     -3.04612969	      8.62252191	     -8.59529694	     -4.37773449	     -0.05256536
      4.43000000	      2.37568888	      2.39042781	    -28.05086878	      0.36200849	      0.90843374	     -0.47459294	      5.24895310	     11.38489465	      0.20894255	    -20.17456115	      7.34497430	    -13.91705226	     17.83397571	    -10.83066615	     -4.19209741	    -61.58280051	     -1.73102092	      7.60692160	     -8.46799022	     -4.42767910	      0.50688589
      4.44000000	      2.26481634	      2.34355960	    -29.65458879	      0.36743200	      0.90861749	     -0.46975862	      4.43009233	     11.56511531	      1.71522780	    -19.69965572	      7.33912272	    -13.85135114	     18.47739609	    -11.27587264	     -4.31024437	    -59.81869952	     -0.50817712	      6.56234741	     -8.33779426	     -4.43905196	      1.04453533
      4.45000000	      2.13372124	      2.28602877	    -31.26049195	      0.37280600	      0.90869122	     -0.46491840	      3.63678754	     11.73643406	      3.24312253	    -19.26408553	      7.35043927	    -13.78984585	     19.04841240	    -11.73814416	     -4.50308267	    -57.87487292	      0.57346136	      5.54692277	     -8.19670699	     -4.40871729	      1.57994547
      4.46000000	      2.01237026	      2.21785992	    -32.84448157	      0.37817987	      0.90869311	     -0.46011796	      2.86311736	     11.87535107	      4.70873891	    -18.90742917	      7.40046740	    -13.72510998	     19.51507493	    -12.17783262	     -4.75487486	    -55.75009466	      1.64692081	      4.42870845	     -8.07904055	     -4.35088748	      2.10590091
      4.47000000	      1.87529894	      2.15640915	    -34.42643228	      0.38352604	      0.90859009	     -0.45533295	      2.12521580	     11.98867444	      6.18570415	    -18.59888028	      7.46832892	    -13.66228985	     19.92087592	    -12.59841332	     -5.09136480	    -53.46862794	      2.55689446	      3.41069073	     -7.94927835	     -4.26689581	      2.62169447
      4.48000000	      1.73076270	      2.10483516	    -36.00482499	      0.38881506	      0.90838707	     -0.45057881	      1.43116570	     12.07480927	      7.68434326	    -18.36182024	      7.56129625	    -13.60321507	     20.26430146	    -12.97546381	     -5.49056652	    -51.03713924	      3.29994965	      2.49999167	     -7.81985651	     -4.16920105	      3.14357909
      4.49000000	      1.58461607	      2.07444026	    -37.56361502	      0.39410844	      0.90808228	     -0.44589615	      0.78354593	     12.11269652	      9.11814840	    -18.19111727	      7.68821934	    -13.55073823	     20.55124575	    -13.27104815	     -5.91591779	    -48.46292321	      3.93281444	      1.73191900	     -7.68378141	     -4.06322307	      3.65670335
      4.50000000	      1.43174688	      2.07251990	    -39.10929828	      0.39933019	      0.90765151	     -0.44129371	      0.20048891	     12.11084967	     10.53937541	    -18.09259087	      7.84633303	    -13.50422945	     20.81042408	    -13.48459679	     -6.35709731	    -45.77399688	      4.38625172	      1.19023460	     -7.54199163	     -3.95876392	      4.17095182
      4.51000000	      1.26581050	      2.10291937	    -40.62679207	      0.40451365	      0.90707840	     -0.43679388	     -0.30523272	     12.07299753	     11.90461725	    -18.06925724	      8.03778020	    -13.45657842	     21.06399002	    -13.59862307	     -6.75158069	    -42.98861053	      4.67227103	      0.91438011	     -7.38397169	     -3.84869464	      4.66607492
      4.52000000	      1.03339361	      2.19751439	    -42.10542398	      0.40963968	      0.90625625	     -0.43242164	     -0.65085880	     12.02059080	     13.20814172	    -18.14288913	      8.28541959	    -13.40600188	     21.40760257	    -13.63580763	     -7.08453654	    -40.14972151	      4.79340661	      0.91687942	     -7.13962899	     -3.72061254	      5.14975450
      4.53000000	      0.84104455	      2.28683997	    -43.52525841	      0.41481744	      0.90540769	     -0.42811817	     -1.01598104	     11.92930644	     14.43359125	    -18.23303824	      8.57461734	    -13.33251266	     21.68541286	    -13.57491069	     -7.35359076	    -37.23117157	      4.79138316	      1.13096638	     -6.94820936	     -3.59462896	      5.58310639
      4.54000000	      0.68920871	      2.34117363	    -44.85273601	      0.42010811	      0.90456516	     -0.42387099	     -1.44070901	     11.81516940	     15.55175562	    -18.29830052	      8.88335223	    -13.21504670	     21.88590250	    -13.43209412	     -7.52136939	    -34.24513886	      4.72718242	      1.78324525	     -6.83034107	     -3.44884981	      5.94662438
